PathFileType	4	(X/Y/Z)	TVC_20_BWA6_walk_RCNL2025.trc
DataRate	CameraRate	NumFrames	NumMarkers	Units	OrigDataRate	OrigDataStartFrame	OrigNumFrames
100	100	5	27	mm	100	1	238
Frame#	Time	R_Shoulder			L_Shoulder			C7			J_Notch			R_Elbow			L_Elbow			R_Wrist			L_Wrist			R_Asis			L_Asis			R_Psis			L_Psis			Sacral			Thoracic			Sternum			R_Thigh_Lateral			R_Knee_Lateral			R_Shank_Lateral			R_Ankle_Lateral			R_Heel			R_Toe			L_Thigh_Lateral			L_Knee_Lateral			L_Shank_Lateral			L_Ankle_Lateral			L_Heel			L_Toe		
		X1	Y1	Z1	X2	Y2	Z2	X3	Y3	Z3	X4	Y4	Z4	X5	Y5	Z5	X6	Y6	Z6	X7	Y7	Z7	X8	Y8	Z8	X9	Y9	Z9	X10	Y10	Z10	X11	Y11	Z11	X12	Y12	Z12	X13	Y13	Z13	X14	Y14	Z14	X15	Y15	Z15	X16	Y16	Z16	X17	Y17	Z17	X18	Y18	Z18	X19	Y19	Z19	X20	Y20	Z20	X21	Y21	Z21	X22	Y22	Z22	X23	Y23	Z23	X24	Y24	Z24	X25	Y25	Z25	X26	Y26	Z26	X27	Y27	Z27
1	0.00000000	-1310.677612	1355.438110	43.774956	-1366.714600	1363.364014	-319.456512	-1362.302612	1414.858154	-125.288948	-1245.859131	1278.709961	-138.966217	-1330.863403	1051.137573	161.783890	-1479.775269	1064.854614	-388.932007	-1137.596558	882.182495	102.988747	-1404.162048	812.965881	-395.487366	-1319.757080	964.450256	23.390852	-1291.691772	957.519958	-253.010513	-1465.262329	965.740234	-89.359108	-1467.842773	950.339661	-180.794785	-1466.552551	958.039948	-135.076946	-1481.975586	1193.978394	-131.197601	-1239.641235	1135.353516	-138.465027	-1433.706177	643.083008	82.568123	-1500.254761	455.011108	0.360687	-1624.024170	317.289642	51.129356	-1754.758545	123.635117	-32.008255	-1804.625854	127.889534	-80.745407	-1636.377563	33.461552	-56.962112	-1218.439087	621.953247	-320.846191	-1129.849365	489.741241	-243.663559	-1113.132202	305.307373	-295.707367	-1054.654175	71.703659	-217.774582	-1101.833008	57.774536	-176.420975	-916.020386	56.123184	-188.769653
2	0.01000000	-1295.451172	1357.577393	41.718754	-1350.152466	1364.545166	-321.681488	-1346.848267	1416.899780	-127.615067	-1230.425903	1280.505859	-140.478317	-1318.059326	1053.135864	159.376953	-1461.788574	1064.664185	-390.074493	-1126.481506	881.908813	102.666946	-1386.313171	812.537323	-394.984665	-1304.553833	964.846619	22.269247	-1276.543213	960.401245	-254.318375	-1449.913086	966.610840	-89.318398	-1452.677734	951.937317	-180.773590	-1451.295410	959.274078	-135.045994	-1466.825684	1196.069824	-132.516739	-1224.103394	1137.079224	-139.976089	-1417.223633	644.384460	81.872009	-1479.308228	452.532043	2.248157	-1609.968018	320.395996	51.794518	-1745.918823	131.598709	-31.144970	-1794.993164	139.574570	-79.911987	-1638.100952	31.112257	-57.653030	-1202.165894	623.622253	-321.624420	-1112.708374	491.851288	-243.379379	-1093.924561	308.126282	-295.731628	-1052.127686	71.148415	-217.909348	-1100.008789	58.945518	-176.795746	-914.146240	50.808342	-187.271133
3	0.02000000	-1280.504517	1359.850952	39.814457	-1333.802002	1365.960571	-323.757172	-1331.587646	1419.080200	-129.787857	-1215.219482	1282.459595	-141.845428	-1305.448242	1055.301514	157.150040	-1443.941650	1064.819336	-391.344604	-1115.470703	881.915192	102.444775	-1368.163269	812.621704	-394.640396	-1289.546387	965.505676	21.180965	-1261.576172	963.379272	-255.598038	-1434.740479	967.723877	-89.366898	-1437.684082	953.766113	-180.827759	-1436.212280	960.744995	-135.097328	-1451.827393	1198.278076	-133.812225	-1208.801636	1138.969604	-141.338654	-1399.609253	645.232422	81.187180	-1457.220337	450.150330	3.849414	-1593.909668	323.252167	52.374775	-1735.433105	140.207672	-30.468325	-1783.557129	151.784119	-79.233917	-1638.244995	30.378920	-58.171200	-1185.487427	626.280029	-322.559021	-1097.014526	493.616364	-243.293304	-1077.381104	310.233734	-295.795715	-1050.098267	70.779541	-218.025192	-1098.524170	59.884216	-177.117172	-912.560547	46.608730	-185.990540
4	0.03000000	-1265.837280	1362.258179	38.062130	-1317.663086	1367.609619	-325.683594	-1316.520264	1421.398804	-131.807312	-1200.239624	1284.570557	-143.067688	-1293.030029	1057.633545	155.103195	-1426.235107	1065.319214	-392.741852	-1104.564270	882.201324	102.322357	-1349.714233	813.218262	-394.454391	-1274.733398	966.426331	20.126036	-1246.789551	966.452393	-256.848938	-1419.744019	969.078796	-89.504539	-1422.860962	955.825256	-180.957535	-1421.302490	962.452026	-135.231037	-1436.980469	1200.602905	-135.083954	-1193.735352	1141.024292	-142.553040	-1380.865601	645.632080	80.515442	-1434.005737	447.876678	5.164416	-1575.861816	325.865570	52.866768	-1723.305542	149.445755	-29.975801	-1770.328979	164.490326	-78.710419	-1636.754272	31.272245	-58.511620	-1168.564087	629.810425	-323.627228	-1082.765381	495.040710	-243.403976	-1063.479858	311.660889	-295.912415	-1048.550659	70.582146	-218.124496	-1097.374390	60.597599	-177.389496	-911.260193	43.481258	-184.922958
5	0.04000000	-1251.448486	1364.796997	36.461891	-1301.736450	1369.490356	-327.460907	-1301.645874	1423.854004	-133.673492	-1185.484985	1286.837524	-144.145645	-1280.804810	1060.130127	153.236435	-1408.670044	1066.161255	-394.264679	-1093.762024	882.766083	102.299934	-1330.971008	814.324738	-394.426285	-1260.112183	967.605530	19.104506	-1232.181641	969.616577	-258.069855	-1404.922241	970.673767	-89.730957	-1408.207397	958.112854	-181.163254	-1406.564819	964.393311	-135.447105	-1422.284302	1203.042114	-136.331665	-1178.902832	1143.242188	-143.620132	-1361.010498	645.606201	79.858475	-1409.702637	445.739471	6.195095	-1555.864380	328.259430	53.262859	-1709.544678	159.265579	-29.662462	-1755.339111	177.614288	-78.342766	-1633.489014	33.800377	-58.664383	-1151.839478	633.898682	-324.782043	-1069.950684	496.135223	-243.707230	-1052.138794	312.481232	-296.105621	-1047.454956	70.526329	-218.213135	-1096.547241	61.101292	-177.621689	-910.240295	41.326176	-184.061661
